<!DOCTYPE svg PUBLIC "-//W3C//DTD SVG 1.1//EN" "http://www.w3.org/Graphics/SVG/1.1/DTD/svg11.dtd">
<!-- Uploaded to: SVG Repo, www.svgrepo.com, Transformed by: SVG Repo Mixer Tools -->
<svg fill="#000000" width="800px" height="800px" viewBox="-6.72 -6.72 45.44 45.44" version="1.1" xmlns="http://www.w3.org/2000/svg" stroke="#000000">
<g id="SVGRepo_bgCarrier" stroke-width="0" transform="translate(0,0), scale(1)">
<rect x="-6.72" y="-6.72" width="45.44" height="45.44" rx="9.088" fill="#ffffff" strokewidth="0"/>
</g>
<g id="SVGRepo_tracerCarrier" stroke-linecap="round" stroke-linejoin="round"/>
<g id="SVGRepo_iconCarrier"> <title>gmail</title> <path d="M30.996 7.824v17.381c0 0 0 0 0 0.001 0 1.129-0.915 2.044-2.044 2.044-0 0-0 0-0.001 0h-4.772v-11.587l-8.179 6.136-8.179-6.136v11.588h-4.772c0 0 0 0-0 0-1.129 0-2.044-0.915-2.044-2.044 0-0 0-0.001 0-0.001v0-17.381c0-0 0-0.001 0-0.001 0-1.694 1.373-3.067 3.067-3.067 0.694 0 1.334 0.231 1.848 0.619l-0.008-0.006 10.088 7.567 10.088-7.567c0.506-0.383 1.146-0.613 1.84-0.613 1.694 0 3.067 1.373 3.067 3.067v0z"/> </g>
</svg>